<?xml version="1.0" encoding="utf-8"?>
<!-- Generator: Adobe Illustrator 23.0.3, SVG Export Plug-In . SVG Version: 6.00 Build 0)  -->
<svg version="1.1" xmlns="http://www.w3.org/2000/svg" xmlns:xlink="http://www.w3.org/1999/xlink" x="0px" y="0px"
	 viewBox="0 0 48 48" style="enable-background:new 0 0 48 48;" xml:space="preserve">
<style type="text/css">
	.st0{display:none;}
	.st1{display:inline;}
	.st2{fill:#F4E8B5;}
	.st3{fill:#D8CEA3;}
	.st4{fill:url(#SVGID_1_);}
</style>
<g id="moon" class="st0">
	<g class="st1">
		<rect width="48" height="48"/>
	</g>
	<g class="st1">
		<path class="st2" d="M44.3,11.14c-1.13-1.89-2.47-3.57-3.98-5.03c2.85,10.24-1.34,21.52-10.91,27.22S7.82,37.43,0.17,30.05
			c0.56,2.02,1.5,3.94,2.63,5.83c6.83,11.46,21.66,15.21,33.12,8.38S51.13,22.6,44.3,11.14z"/>
	</g>
	<g class="st1">
		<path class="st3" d="M40.34,6.1c5.66,11,1.42,25.75-8.36,31.46c-10.96,6.4-25.02,2.99-31.84-7.6c0,0,12.7,12.64,29.2,3.35
			C45.81,23.13,40.34,6.1,40.34,6.1z"/>
	</g>
</g>
<g id="sun">
	<g class="st0">
		<rect class="st1" width="48" height="48"/>
	</g>
	<g>
		<linearGradient id="SVGID_1_" gradientUnits="userSpaceOnUse" x1="7.8182" y1="4.2376" x2="43.3316" y2="47.6763">
			<stop  offset="0" style="stop-color:#FFFFFF"/>
			<stop  offset="0.2875" style="stop-color:#FCEE21"/>
			<stop  offset="0.7805" style="stop-color:#FFB91E"/>
		</linearGradient>
		<circle class="st4" cx="24" cy="24.03" r="23.37"/>
	</g>
</g>
<g id="Layer_3" class="st0">
</g>
</svg>
