<svg xmlns="http://www.w3.org/2000/svg" style="display: none;">

  <!-- moon -->
  <symbol id="icon-01n" fill="#ffe005" viewBox="0 0 512 512" bottom="100px">
    <svg version="1.1" xmlns="http://www.w3.org/2000/svg" xmlns:xlink="http://www.w3.org/1999/xlink" x="0px" y="0px" viewBox="0 0 48 48" style="enable-background:new 0 0 48 48;" xml:space="preserve">

      <g id="icon-01n">
        <g>
          <rect class="st1" display="none" width="48" height="48" />
        </g>
        <g>
          <path class="st2" fill="#F4E8B5" d="M44.3,11.14c-1.13-1.89-2.47-3.57-3.98-5.03c2.85,10.24-1.34,21.52-10.91,27.22S7.82,37.43,0.17,30.05
         c0.56,2.02,1.5,3.94,2.63,5.83c6.83,11.46,21.66,15.21,33.12,8.38S51.13,22.6,44.3,11.14z" />
        </g>
        <g>
          <path class="st3" fill="#D8CEA3" d="M40.34,6.1c5.66,11,1.42,25.75-8.36,31.46c-10.96,6.4-25.02,2.99-31.84-7.6c0,0,12.7,12.64,29.2,3.35
         C45.81,23.13,40.34,6.1,40.34,6.1z" />
        </g>
      </g>
  
      <g id="Layer_3"></g>
    </svg>
  </symbol>

  <!-- sun -->
  <symbol id="icon-01d" fill="#ffe005" viewBox="0 0 512 512" bottom="100px">
    <svg version="1.1" xmlns="http://www.w3.org/2000/svg" xmlns:xlink="http://www.w3.org/1999/xlink" x="0px" y="0px" viewBox="0 0 48 48" style="enable-background:new 0 0 48 48;" xml:space="preserve">
      <style type="text/css">
</style>
        <g opacity="100%">
        
          <circle class="st2" opacity="100%"  cx="24" cy="24.03" r="23.37" />
        </g>
      <g id="Layer_3" class="st0" display="none"></g>
    </svg>
  </symbol>

  <symbol id="icon-02n" viewBox="0 0 512 512" bottom="100px">

    <svg version="1.1" xmlns="http://www.w3.org/2000/svg" xmlns:xlink="http://www.w3.org/1999/xlink" x="0px" y="0px"
    viewBox="0 0 48 48" style="enable-background:new 0 0 48 48;" xml:space="preserve">

 <g id="Layer_4">
   <g>
     <circle fill="#F4E8B5" class="st2" cx="31.51" cy="25.77" r="12.73"/>
   </g>
   <g>
     <path fill="#D6D6D6" class="st4" d="M11.09,30.03c-0.33-0.04-0.66-0.06-0.99-0.06c-4.62,0-8.36,3.74-8.36,8.36s3.74,8.36,8.36,8.36h29.81
       c3.51,0,6.35-3.17,6.35-6.68c0-3.51-2.84-6.35-6.35-6.35c-0.62,0-1.23,0.09-1.8,0.26c0.2-0.59,0.32-1.22,0.32-1.88
       c0-3.19-2.58-5.77-5.77-5.77c-1.09,0-2.11,0.31-2.98,0.83c-0.69-4.53-4.58-8-9.3-8c-5.2,0-9.42,4.22-9.42,9.42
       C10.97,29.05,11.02,29.54,11.09,30.03z"/>
   </g>
 </g>
 <g id="sun" class="st0">


 </g>
 </svg>
 
  </symbol>

  <!-- day clouds -->
  <symbol id="icon-04d" viewBox="0 0 512 512" bottom="100px">
    <svg version="1.1" id="Layer_1" xmlns="http://www.w3.org/2000/svg" xmlns:xlink="http://www.w3.org/1999/xlink" x="0px" y="0px"
    viewBox="0 0 48 48" style="enable-background:new 0 0 48 48;" xml:space="preserve">

 <path class="st0" fill="#6EC4FF" d="M19.89,23.45c-0.25-0.03-0.51-0.05-0.77-0.05c-3.58,0-6.48,2.9-6.48,6.48s2.9,6.48,6.48,6.48h23.08
   c2.72,0,4.92-2.45,4.92-5.17c0-2.72-2.2-4.92-4.92-4.92c-0.48,0-0.95,0.07-1.39,0.2c0.16-0.46,0.25-0.94,0.25-1.45
   c0-2.47-2-4.47-4.47-4.47c-0.84,0-1.63,0.24-2.3,0.65c-0.53-3.5-3.55-6.19-7.2-6.19c-4.03,0-7.3,3.27-7.3,7.3
   C19.79,22.69,19.83,23.07,19.89,23.45z"/>
 <path class="st1" fill="#A6DFFF" d="M10.91,29.73c-0.34-0.04-0.68-0.07-1.02-0.07c-4.77,0-8.63,3.86-8.63,8.63s3.86,8.63,8.63,8.63h30.75
   c3.62,0,6.55-3.27,6.55-6.89c0-3.62-2.93-6.55-6.55-6.55c-0.64,0-1.27,0.1-1.85,0.27c0.21-0.61,0.33-1.26,0.33-1.94
   c0-3.29-2.66-5.95-5.95-5.95c-1.12,0-2.17,0.32-3.07,0.86c-0.71-4.67-4.73-8.25-9.6-8.25c-5.37,0-9.72,4.35-9.72,9.72
   C10.78,28.72,10.83,29.23,10.91,29.73z"/>
 </svg>
 
 
  </symbol>


</svg>