<svg xmlns="http://www.w3.org/2000/svg" style="display: none;">

  <!-- moon -->
  <symbol id="icon-01n" fill="#ffe005" viewBox="0 0 512 512" bottom="100px">
    <svg version="1.1" xmlns="http://www.w3.org/2000/svg" xmlns:xlink="http://www.w3.org/1999/xlink" x="0px" y="0px" viewBox="0 0 48 48" style="enable-background:new 0 0 48 48;" xml:space="preserve">

      <g id="icon-01n">
        <g>
          <rect class="st1" display="none" width="48" height="48" />
        </g>
        <g>
          <path class="st2" fill="#F4E8B5" d="M44.3,11.14c-1.13-1.89-2.47-3.57-3.98-5.03c2.85,10.24-1.34,21.52-10.91,27.22S7.82,37.43,0.17,30.05
         c0.56,2.02,1.5,3.94,2.63,5.83c6.83,11.46,21.66,15.21,33.12,8.38S51.13,22.6,44.3,11.14z" />
        </g>
        <g>
          <path class="st3" fill="#D8CEA3" d="M40.34,6.1c5.66,11,1.42,25.75-8.36,31.46c-10.96,6.4-25.02,2.99-31.84-7.6c0,0,12.7,12.64,29.2,3.35
         C45.81,23.13,40.34,6.1,40.34,6.1z" />
        </g>
      </g>
  
      <g id="Layer_3"></g>
    </svg>
  </symbol>

  <!-- sun -->
  <symbol id="icon-01d" fill="#ffe005" viewBox="0 0 512 512" bottom="100px">
    <svg version="1.1" xmlns="http://www.w3.org/2000/svg" xmlns:xlink="http://www.w3.org/1999/xlink" x="0px" y="0px" viewBox="0 0 48 48" style="enable-background:new 0 0 48 48;" xml:space="preserve">
      <style type="text/css">
</style>
        <g opacity="100%">
        
          <circle class="st2" opacity="100%"  cx="24" cy="24.03" r="23.37" />
        </g>
      <g id="Layer_3" class="st0" display="none"></g>
    </svg>
  </symbol>

  <symbol id="icon-02n" viewBox="0 0 512 512" bottom="100px">

    <svg version="1.1" xmlns="http://www.w3.org/2000/svg" xmlns:xlink="http://www.w3.org/1999/xlink" x="0px" y="0px"
    viewBox="0 0 48 48" style="enable-background:new 0 0 48 48;" xml:space="preserve">

 <g id="Layer_4">
   <g>
     <circle fill="#F4E8B5" class="st2" cx="31.51" cy="25.77" r="12.73"/>
   </g>
   <g>
     <path fill="#D6D6D6" class="st4" d="M11.09,30.03c-0.33-0.04-0.66-0.06-0.99-0.06c-4.62,0-8.36,3.74-8.36,8.36s3.74,8.36,8.36,8.36h29.81
       c3.51,0,6.35-3.17,6.35-6.68c0-3.51-2.84-6.35-6.35-6.35c-0.62,0-1.23,0.09-1.8,0.26c0.2-0.59,0.32-1.22,0.32-1.88
       c0-3.19-2.58-5.77-5.77-5.77c-1.09,0-2.11,0.31-2.98,0.83c-0.69-4.53-4.58-8-9.3-8c-5.2,0-9.42,4.22-9.42,9.42
       C10.97,29.05,11.02,29.54,11.09,30.03z"/>
   </g>
 </g>
 <g id="sun" class="st0">


 </g>
 </svg>
 
  </symbol>

  <!-- day clouds -->
  <symbol id="icon-04d" viewBox="0 0 512 512" bottom="100px">
    <svg version="1.1" id="Layer_1" xmlns="http://www.w3.org/2000/svg" xmlns:xlink="http://www.w3.org/1999/xlink" x="0px" y="0px"
    viewBox="0 0 48 48" style="enable-background:new 0 0 48 48;" xml:space="preserve">

 <path class="st0" fill="#6EC4FF" d="M19.89,23.45c-0.25-0.03-0.51-0.05-0.77-0.05c-3.58,0-6.48,2.9-6.48,6.48s2.9,6.48,6.48,6.48h23.08
   c2.72,0,4.92-2.45,4.92-5.17c0-2.72-2.2-4.92-4.92-4.92c-0.48,0-0.95,0.07-1.39,0.2c0.16-0.46,0.25-0.94,0.25-1.45
   c0-2.47-2-4.47-4.47-4.47c-0.84,0-1.63,0.24-2.3,0.65c-0.53-3.5-3.55-6.19-7.2-6.19c-4.03,0-7.3,3.27-7.3,7.3
   C19.79,22.69,19.83,23.07,19.89,23.45z"/>
 <path class="st1" fill="#A6DFFF" d="M10.91,29.73c-0.34-0.04-0.68-0.07-1.02-0.07c-4.77,0-8.63,3.86-8.63,8.63s3.86,8.63,8.63,8.63h30.75
   c3.62,0,6.55-3.27,6.55-6.89c0-3.62-2.93-6.55-6.55-6.55c-0.64,0-1.27,0.1-1.85,0.27c0.21-0.61,0.33-1.26,0.33-1.94
   c0-3.29-2.66-5.95-5.95-5.95c-1.12,0-2.17,0.32-3.07,0.86c-0.71-4.67-4.73-8.25-9.6-8.25c-5.37,0-9.72,4.35-9.72,9.72
   C10.78,28.72,10.83,29.23,10.91,29.73z"/>
 </svg>
 
 
  </symbol>

   <!-- rain -->
   <symbol id="icon-09n" viewBox="0 0 512 512" bottom="100px">
    <svg version="1.1" xmlns="http://www.w3.org/2000/svg" xmlns:xlink="http://www.w3.org/1999/xlink" x="0px" y="0px"
	 viewBox="0 0 48 48" style="enable-background:new 0 0 48 48;" xml:space="preserve">
<style type="text/css">
	.st0{display:none;}
	.st1{display:inline;}
	.st2{fill:#F4E8B5;}
	.st3{fill:#D8CEA3;}
	.st4{fill:#D6D6D6;}
	.st5{fill:#6EC4FF;}
	.st6{fill:#A6DFFF;}
	.st7{fill:none;stroke:#6EC4FF;stroke-width:2;stroke-linecap:round;stroke-miterlimit:10;}
	.st8{fill:url(#SVGID_1_);}
</style>
<g id="moon" class="st0">
	<g class="st1">
		<rect width="48" height="48"/>
	</g>
	<g class="st1">
		<g>
			<path class="st2" d="M51.3,13.14c-1.13-1.89-2.47-3.57-3.98-5.03c2.85,10.24-1.34,21.52-10.91,27.22s-21.59,4.09-29.24-3.29
				c0.56,2.02,1.5,3.94,2.63,5.83c6.83,11.46,21.66,15.21,33.12,8.38S58.13,24.6,51.3,13.14z"/>
		</g>
		<g>
			<path class="st3" d="M47.34,8.1c5.66,11,1.42,25.75-8.36,31.46c-10.96,6.4-25.02,2.99-31.84-7.6c0,0,12.7,12.64,29.2,3.35
				C52.81,25.13,47.34,8.1,47.34,8.1z"/>
		</g>
	</g>
</g>
<g id="Layer_4" class="st0">
	<g class="st1">
		<circle class="st2" cx="31.51" cy="25.77" r="12.73"/>
	</g>
	<g class="st1">
		<path class="st4" d="M11.09,30.03c-0.33-0.04-0.66-0.06-0.99-0.06c-4.62,0-8.36,3.74-8.36,8.36s3.74,8.36,8.36,8.36h29.81
			c3.51,0,6.35-3.17,6.35-6.68c0-3.51-2.84-6.35-6.35-6.35c-0.62,0-1.23,0.09-1.8,0.26c0.2-0.59,0.32-1.22,0.32-1.88
			c0-3.19-2.58-5.77-5.77-5.77c-1.09,0-2.11,0.31-2.98,0.83c-0.69-4.53-4.58-8-9.3-8c-5.2,0-9.42,4.22-9.42,9.42
			C10.97,29.05,11.02,29.54,11.09,30.03z"/>
	</g>
</g>
<g id="Layer_5">
	<path class="st5" d="M18.96,9.18c-0.25-0.03-0.51-0.05-0.77-0.05c-3.58,0-6.48,2.9-6.48,6.48s2.9,6.48,6.48,6.48h23.08
		c2.72,0,4.92-2.45,4.92-5.17c0-2.72-2.2-4.92-4.92-4.92c-0.48,0-0.95,0.07-1.39,0.2c0.16-0.46,0.25-0.94,0.25-1.45
		c0-2.47-2-4.47-4.47-4.47c-0.84,0-1.63,0.24-2.3,0.65c-0.53-3.5-3.55-6.19-7.2-6.19c-4.03,0-7.3,3.27-7.3,7.3
		C18.86,8.42,18.9,8.8,18.96,9.18z"/>
	<path class="st6" d="M9.98,15.46c-0.34-0.04-0.68-0.07-1.02-0.07c-4.77,0-8.63,3.86-8.63,8.63s3.86,8.63,8.63,8.63h30.75
		c3.62,0,6.55-3.27,6.55-6.89c0-3.62-2.93-6.55-6.55-6.55c-0.64,0-1.27,0.1-1.85,0.27c0.21-0.61,0.33-1.26,0.33-1.94
		c0-3.29-2.66-5.95-5.95-5.95c-1.12,0-2.17,0.32-3.07,0.86c-0.71-4.67-4.73-8.25-9.6-8.25c-5.37,0-9.72,4.35-9.72,9.72
		C9.85,14.45,9.9,14.96,9.98,15.46z"/>
	<line class="st7" x1="15.84" y1="29.55" x2="14.12" y2="34.69"/>
	<line class="st7" x1="21.9" y1="32.56" x2="20.77" y2="35.86"/>
	<line class="st7" x1="27.62" y1="33.25" x2="26.48" y2="36.59"/>
	<line class="st7" x1="31.13" y1="37.77" x2="30.23" y2="40.41"/>
	<line class="st7" x1="33.08" y1="32.04" x2="32.18" y2="34.68"/>
	<line class="st7" x1="25.46" y1="39.58" x2="23.58" y2="45.12"/>
	<line class="st7" x1="12.78" y1="38.68" x2="11.66" y2="42"/>
	<line class="st7" x1="19.78" y1="38.79" x2="18.96" y2="41.22"/>
</g>
<g id="sun" class="st0">
	<g>
		<rect class="st1" width="48" height="48"/>
	</g>
	<g class="st1">
		<linearGradient id="SVGID_1_" gradientUnits="userSpaceOnUse" x1="7.8182" y1="4.2376" x2="43.3316" y2="47.6763">
			<stop  offset="0" style="stop-color:#FFFFFF"/>
			<stop  offset="0.2875" style="stop-color:#FCEE21"/>
			<stop  offset="0.7805" style="stop-color:#FFB91E"/>
		</linearGradient>
		<circle class="st8" cx="24" cy="24.03" r="23.37"/>
	</g>
</g>
</svg>


 
 
  </symbol>

  <!-- misc -->
  <symbol id="icon-50n" viewBox="0 0 512 512" bottom="100px">
    <svg version="1.1" id="Layer_1" xmlns="http://www.w3.org/2000/svg" xmlns:xlink="http://www.w3.org/1999/xlink" x="0px" y="0px"
    viewBox="0 0 48 48" style="enable-background:new 0 0 48 48;" xml:space="preserve" stroke="#FFFFFF">
    
 <style type="text/css">
   .st0{fill:none;stroke:#FFFFFF;stroke-width:2;stroke-linecap:round;stroke-miterlimit:10;}
 </style>
 <line class="st0" x1="16.27" y1="10.16" x2="30.8" y2="10.16" stroke="#FFFFFF" stroke-width="2" stroke-linecap="round"/>
 <line class="st0" x1="16.27" y1="10.28" x2="30.8" y2="10.28" stroke="#FFFFFF" stroke-width="2" stroke-linecap="round"/>
 <line class="st0" x1="6.73" y1="15.94" x2="30.45" y2="15.94" stroke="#FFFFFF" stroke-width="2" stroke-linecap="round"/>
 <line class="st0" x1="16.27" y1="21.41" x2="43.58" y2="21.41" stroke="#FFFFFF" stroke-width="2" stroke-linecap="round"/>
 <line class="st0" x1="4.87" y1="26.9" x2="32.17" y2="26.9" stroke="#FFFFFF" stroke-width="2" stroke-linecap="round"/>
 <line class="st0" x1="9.07" y1="32.38" x2="39.77" y2="32.38" stroke="#FFFFFF" stroke-width="2" stroke-linecap="round"/>
 <line class="st0" x1="14.58" y1="38.13" x2="33.88" y2="38.13" stroke="#FFFFFF" stroke-width="2" stroke-linecap="round"/>
 </svg>
 
</symbol>


<symbol id="icon-11d" viewBox="0 0 512 512" bottom="100px">
  <svg version="1.1" id="Layer_1" xmlns="http://www.w3.org/2000/svg" xmlns:xlink="http://www.w3.org/1999/xlink" x="0px" y="0px"
  viewBox="0 0 48 48" style="enable-background:new 0 0 48 48;" xml:space="preserve">
<style type="text/css">
 .st0{fill:#FFD03B;}
</style>
<polygon class="st0" points="30.06,7.32 25.13,22.59 34.56,22.92 26.81,47.92 46.31,17.1 36.54,16.76 39.69,7.05 " fill="#FFD03B"/>
</svg>


</symbol>


<!--clouds-->
<symbol id="icon-04n" viewBox="0 0 512 512" bottom="100px">
  <svg version="1.1" id="Layer_1" xmlns="http://www.w3.org/2000/svg" xmlns:xlink="http://www.w3.org/1999/xlink" x="0px" y="0px"
	 viewBox="0 0 50 50" style="enable-background:new 0 0 50 50;" xml:space="preserve">

<path class="st0" d="M19.52,22.92c-0.25-0.03-0.51-0.05-0.77-0.05c-3.58,0-6.48,2.9-6.48,6.48s2.9,6.48,6.48,6.48h23.08
	c2.72,0,4.92-2.45,4.92-5.17c0-2.72-2.2-4.92-4.92-4.92c-0.48,0-0.95,0.07-1.39,0.2c0.16-0.46,0.25-0.94,0.25-1.45
	c0-2.47-2-4.47-4.47-4.47c-0.84,0-1.63,0.24-2.3,0.65c-0.53-3.5-3.55-6.19-7.2-6.19c-4.03,0-7.3,3.27-7.3,7.3
	C19.42,22.16,19.46,22.54,19.52,22.92z" fill="#6EC4FF"/>
<path class="st1" d="M10.54,29.2c-0.34-0.04-0.68-0.07-1.02-0.07c-4.77,0-8.63,3.86-8.63,8.63s3.86,8.63,8.63,8.63h30.75
	c3.62,0,6.55-3.27,6.55-6.89c0-3.62-2.93-6.55-6.55-6.55c-0.64,0-1.27,0.1-1.85,0.27c0.21-0.61,0.33-1.26,0.33-1.94
	c0-3.29-2.66-5.95-5.95-5.95c-1.12,0-2.17,0.32-3.07,0.86c-0.71-4.67-4.73-8.25-9.6-8.25c-5.37,0-9.72,4.35-9.72,9.72
	C10.4,28.19,10.46,28.7,10.54,29.2z" fill="#A6DFFF"/>
</svg>
</symbol>

</svg>